<?xml version="1.0" encoding="UTF-8"?>
<svg id="kalender" xmlns="http://www.w3.org/2000/svg" xmlns:xlink="http://www.w3.org/1999/xlink" viewBox="0 0 293.54 83.37">
  <g id="baggrund">
    <path d="M62.2,72.1c-.2-.3-.6-.2-.9-.3,1.3-.4.5-1.7,1.2-2.3,0,.1.1.2.1.3,0,.4,0,.7.6.7s.5-.4.5-.7v-14.7c0-.4.1-.9-.5-.8-.3,0-.6-.2-.7.4-.1.7.3.8.8.9-.6.1-.8.4-.8,1,0,2.1,0,4.2-.2,6.3v-6.2c0-.7-.2-1-.9-.9-.8.1-1.7,0-2.6-.2h2.5c.4,0,1,.4,1-.5,0-.8-.6-.6-1-.6-2.7,0-5.4.1-8.1.2h-2.6c-.3,0-.6-.1-.6.3s.3.4.6.4h2.9c-.7.4-.7.3-1.8.4-.6.1-1.3-.7-1.8.2-.1.2-.9-.5-.8.5-.1-.6-.2-.8-.9-.8-1.6,0-3.1.2-4.6.1-.6-.1-1.1-.1-1.2.7-.2-.9-.3-1.4-.3-2h-.1c-.1.6-.1,1.1-.2,1.7-.1-.7-.5-.8-1.1-.8h-3.4c-.9,0-2-.3-1.6,1.5-.3-1.1-.3-2.1-.1-3.2.5.6,1.2.2,1.7.6-.1,0-.1.1-.2.1-.4.3-1.3-.4-1.3.3s.9.4,1.4.4c1.1.1,2.2,0,3.4,0,.4,0,.9.2.9-.4s-.6-.3-1-.3c-.8-.1-1.7,0-2.5-.2h10.6c.6,0,.9-.1.9-.8.1-1.3.7-2.5,1.6-3.5.2-.2.4-.7,1-.4-1.4,1.2-2.3,2.7-2.2,4.7,1.9,0,3.9.3,5.7-.1,2.2-.4,4.4,0,6.6-.1.9-.1,1.4-.2,1.2-1.2q.3,1,1.9,1.3c0,.1-.1.2-.1.2-1.6,0-1.5,0-1.5,1.7,0,4.5.2,9,0,13.4,0,.8.3,1.2,1.2,1.2,5.8-.1,11.6-.1,17.3-.2,11.7-.1,23.4-.1,35-.1.3,0,.6.1,1.3.1-2.3.4-4.3.2-6.2.2-4.7.1-9.4.1-14.1.1-11.5,0-23.1.1-34.6,0-1.5,0-1,.9-1.3,1.5l-.1-.1ZM45.6,55.1h0c.9.1,1.7.1,2.6.1.3,0,.6,0,.5-.4,0-.3-.3-.3-.5-.3h-5.3c-.3,0-.4.1-.5.4,0,.4.3.3.5.3.9-.1,1.8-.1,2.7-.1Z"/>
    <path d="M260.6,69.6c.3.2,1,.3.2.9-.3.2.2.9-.1,1.3-.1,0-.2-.1-.2-.1.2-1.4-.5-1.5-1.7-1.5-3-.1-6-.1-9,0h0c.1-.7.6-.5,1-.5,2.1,0,4.2-.1,6.2,0,1,0,1.3-.2,1.3-1.2V28.4c0-.8-.2-1.1-1-1.2-.7,0-1.4-.3-2.3-1,1,.3,1.8.8,2.4.7.8-.2,1.5,0,2.2,0,1.1,0,.2-.9.8-1.2-.1,1.7,1.2,1.2,2.3,1.2-.2.2-.3.3-.3.3q-1.9.2-1.9,2.1v36.3c0,.9-.3,2,.2,2.5.5.6,1.7.2,2.5.2,6,0,12-.1,18-.1,1.5,0,3-.1,4.5,0,1,.1,1.4-.1,1.2-1.3-.1-.8-.2-1.7.3-2.6v2.8c0,.4-.3,1,.5,1.1.3,0,.2.4,0,.4-.6.1-.4.6-.7,1.3,0-1.1-.4-1.3-1.1-1.3-2.7.1-5.4.1-8.1.1h-16.3c-.5.1-1.1,0-.9.9-.4-.3-.4-1.2-1.3-1.1.9,0,1-.4,1-1.1,0-13,0-26-.1-39.1,0-.5.2-1.1-.8-1-1,0-.8.6-.8,1.1v39.9c.1,1.8.2,1.9,2,1.3Z"/>
    <path d="M213,74.2c-3.6,0-7.3.1-10.9.1-.7,0-1.3,0-1.3,1.1.2-1.1-.6-1.1-1.3-1.3,1.2,0,1.3-.7,1.1-1.4-.4-1.4-.3-2.9-1-4.2-.8-1.6-2.1-2.6-3.6-3.4,2.2.3,3.4,1.7,4.1,3.6.4,1,1,1.3,1.9,1.3,4,0,8,.1,11.9,0,4.5-.1,9-.1,13.5-.1h16.3c.6,0,1.1-.1,1.7-.1q1.9,0,2-1.8c.2,0,.2.2.2.3-.2,1.2.2,1.7,1.4,1.5.4-.1.7.1.9.5h0q-2.2-.1-2.3,2.1c-.1,1.1.3,2.2-.1,3.3.2-1.3-.6-1.5-1.5-1.5h-32.4c-.3-.1-.5,0-.6,0,.2-.5.7-.3,1.1-.4h32.3c.4,0,.9.2,1-.5.4-3.1.2-3.4-2.9-3.1h-30.5c-4.1,0-8.2-.2-12.3.1-.3,0-.8-.2-.9.5-.1.7.6.5.8.8-1,.2-1,.3-.3,1,.2.2.2.3,0,.3-.4.1-.6.3-.5.7.2.5.6.2.9.2,2.9,0,5.8-.1,8.7,0,.9.1,1.8-.3,2.6.4Z"/>
    <path d="M61.4,17.9h-8.2c.1.8.8.2,1,.8-1.1-.1-1,.7-1,1.4,0,1.6.1,3.1,0,4.7-.1,1.1.4,1.5,1.4,1.3.2,0,.4-.2.7.1-.6.6-1.7-.4-2.1.9-.1.2-.1-.1-.2-.2-.1-.6-.6-.4-1.1-.6.6,0,1.1.1,1.1-.7-.1-1.9.1-3.9-.1-5.8-.1-.7-.3-.8-.9-.8h-9.3c-2.2,0-4.5,0-6.7-.1-.9,0-1.3.1-1.2,1.2.1,1,0,2.1,0,3.4-.5-.6-.4-1-.4-1.4,0-.8.1-1.6,0-2.4-.2-1-.2-1.4,1.2-1.3,2.4.2,4.9,0,7.3.1,2.9.1,5.8-.2,8.7.2h.4c.3-.1.8.1.9-.4.1-.6-.6-.1-.7-.5.2-.3.8.1.8-.5,0-.7-.7-.2-.9-.7,1.7-.2.4-1.6,1-2.3.5,0,0,.8.6.8.5,0,.4.3,0,.4-.7.1-.6.3-.6.6,0,.5.4.3.6.3,2.5,0,4.9,0,7.4.1.5,0,.4-.2.5-.6.2-.8-.2-1.6-.1-2.7.2.4.3.7.3.9-.1.8.3.8.9.8,7.1.2,14.2-.1,21.3-.1,6.7,0,13.3.1,20,.1h3.6c-.6.4-1.3.3-1.9.3-5.4,0-10.8-.1-16.2-.1-7.6,0-15.1.1-22.7.1h-3.8c-.4,0-1.1-.3-1.1.6-.1.9.7.5,1.2.8-.5.3-1.5-.2-1.3.8h0c-.3-.4-.5-.7-1.2-.7-2.3.1-4.5.1-6.8.1-.5,0-.8,0-.8.5s.4.3.7.3c2.1,0,4.1,0,6.2.1.5,0,1.1-.3,1.5.2h0Z" fill="#626262"/>
    <path d="M212.5,18.1c-1,.5-2.1.2-3.1.2-9.6.1-19.3.1-28.9.1h-34.3c-3.3,0-6.5.1-9.8.1-5,0-10,.3-15,0-.6,0-.4.4-.4.6,0,.7.1,1.5-.2,2.4-.1-.3-.2-.5-.2-.6.3-1-.4-2.3.3-2.8.5-.4,1.8,0,2.7,0h20.6c9,0,17.9-.1,26.9-.2h39.5c.7,0,1.3.2,1.9.2h0Z"/>
    <path d="M5.5,9.5h27.6v.4H5.2v.4c8,.3,16,.1,24.1.4h-8.1c-4.9,0-9.9,0-14.8-.1-1.1,0-1.3.4-1.3,1.3v13.5h-.4v-5.1c0-3,.1-6.1.1-9.1,0-.9-.1-1.8-.1-2.7v-.2c-.7-.6-1.6,0-2.4-.2-.5-.1-.6.2-.6.6v1.6c-.7-.9.4-2.3-1.3-2.4.8-.1,1.1-.5,1.2-1.2.1.6.2,1.4.8,1.1.8-.3,2.3.6,2.4-1.2,0,1.4.9,1.1,1.7,1.1h4.4c.3,0,.6,0,.8.3-2.1,0-4.1.2-6.2-.1-.4-.1-.6.2-.6.5,0,.5.4.4.7.4h27.8c.2,0,.4,0,.6.3H5.4c.1.1.1.2.1.4Z"/>
    <path d="M287,62.1V19.8c0-1.1-.2-1.5-1.4-1.4-7.4.1-14.7,0-22.1,0-.7,0-1.4.1-2.1.1-.3,0-.8-.3-.8.5,0,.6.4.7.8.7.2,0,.5-.1.7.2-.5.4-1.8-.5-1.7,1-.2-1.3-.2-2.4,0-3.7.1.8.5.9,1.2.9,8.2,0,16.4-.1,24.6,0,.8,0,.8-.4.8-1.3.4.8.1,1.6,1.2,1.4-.8.3-.9.9-.9,1.5v42.5c-.1-.2-.2-.2-.3-.1Z"/>
    <path d="M61.8,17.4c.2,0,.4.1.6.1.3.1.9-.2.9.3s-.6.2-.9.1c-.4,0-.4.1-.4.4s.2.2.3.2c5-.2,10-.1,15-.1,7-.1,14.1,0,21.1-.1,6.3-.1,12.6-.1,18.9.1.5,0,1.2.3,1.2-.8.2.8.7,1,1.4.9-1.6,0-1.3,1.1-1.3,2v7.1c0,.2-.1.4-.3.5v-8.2c0-.9-.2-1.2-1.2-1.2-8,.1-16.1,0-24.1.1-10.1.2-20.1.1-30.2.1-.6,0-1,.1-1,.8,0,.2-.2.4-.6.5v-2.2h0c.3-.2.5-.4.6-.6h0Z" fill="#626262"/>
    <path d="M258.5,16.1c-.6-.9-.1-2-.3-2.9.4-.1.5.1.5.3-.2.9.4.8,1,.8h30.1c.8,0,1.5.1,1.2-1.1-.1-.2.1-.5.3-.7.3.6-.2,1.4.5,1.7.5.2,1.2-.1,1.7.1.1.3,0,.3-.1.3q-1.9.2-1.9,2v40.5h-.3V16.7q0-2.2-2.3-2.2c-7.8.1-15.5.1-23.3.2h-5.8c-.4,0-1-.3-1,.2-.1.7.8.1.9.5-.3.7-1.2-.1-1.2.7h0Z"/>
    <path d="M57.1,70.5c-.6,0-1.2.1-1.5-.3-.2,0-.4.1-.7.1-.2.1-.5.2-.9.2h-1.6c-1.7,0-3.5.1-5.2.1h0c-.6.2-1.3.1-1.9.2-.6.2-1.3-.2-2.1.2,1.7.3,3.1-.1,4.4.1.2,0,.5-.4.7,0,.1.3-.1.5-.4.5-.1,0-.4.1-.1.2,1.1.2.3,1,.5,1.5h0c.3.8-.1,1-.8,1-2.1,0-4.1.2-6.2.1-2.1-.1-4.2.5-6.2-.3l-.1.5q.1.1,0,.2h0c.2,0,.4.1.6.1.1-.1.3-.1.6-.1h11.3c.7,0,1.1.1,1.1,1,.1-.7.5-1,1.1-1.2-.7,0-1.1-.3-.9-1,.3-.9,1.1-.3,1.7-.3.9-.1-.1.7.4.9.1-.6,2-.6.6-1.8,0-.7.6-.5,1-.5,1.9,0,3.9.1,5.8-.2-.6-.1-1.1-.1-1.7-.1-.3,0-.9.2-.9-.5s.6-.5.9-.5h4.3c-1.4-.1-2.6-.2-3.8-.1ZM48.7,72.8c-.1-.1-.2-.5-.1-.7.3-.6.3.2.4.1.2-.1.3-.3.5-.4.4-.1.6,0,1,.5.1.1.3,0,.6,0-.3.5-2.1.8-2.4.5ZM54.6,71.7h-4.6c-.3,0-.6,0-.6-.5s.4-.4.7-.4h4.5c.3,0,.7-.1.7.4-.1.3-.2.5-.7.5Z"/>
    <path d="M118.5,16.9v-2.9c.2.6.7.7,1.3.7h16.3c5.1,0,10.2.1,15.3.1,9,0,17.9-.1,26.9-.1h1.8v.3h-4.1c-4.1,0-8.3.1-12.4.1h-39.2c-1.6,0-3.1.1-4.7.1-.7,0-1,.1-.7.9.1.2-.3.5-.5.8Z"/>
    <path d="M278,74.8c.1-1.3,1-.6,1.5-.7.6-.1.5.2.5.5h.3c.1-.5.3-.6.8-.6.9,0,1.8.1,2.7,0,.5,0,.7.1.8.4h.5c.2-.4.5-.4,1.2-.4,1.4.1,2.8,0,4.2,0-1.5-.5-3-.3-4.5-.4-.6,0-1.1-.1-1.1-.8-.5.2.1.8-.7.9-1.2.2-1.4-.5-1.7-1.4.3,1.2-.3,1.5-1.2,1.3-1.2-.2-2.5-.2-3.6-.1-1.7.1-3.5.1-5.2.1-4.3.1-8.6,0-12.9,0-.4,0-1,.3-1.1-.3-.2-.6.5-.6,1-1.1-.8.3-1.1.1-1-.6-.3.2-.3.6-.5.9.3.9-.1,1.8.6,2.8-.3-1.4.4-1.4,1.4-1.4h17c.7.1.9.4,1,.9Z"/>
    <path d="M21,57.9v-1.9c-.1-.7.3-.8.8-.8.7-.1,1.5.2,2.2-.3-.9-.2-1.9-.1-2.7-.2-.6-.1-.7.1-.7.6v2.6h.4Z"/>
    <path d="M16.1,55.2c3.2-.1,3.3-.1,3.1,2.6h.4c0-1-.1-1.9.1-2.9-.9-.1-1.6-.2-2.4-.1-.7,0-1.5.1-2.3.2.4.4.7.2,1.1.2Z"/>
    <path d="M5.1,32c-.7-.4-.3-1-.3-1.6v-3.4h.4v3.2c0,.7.1.8.8.6.5-.1.5.4.9.4,1.4.2,2.9.3,4.3,0,.6-.1,1.2-.1,1.8-.1h18.2c1.3,0,1.4-.1,1-1.4.9-.1,1.7.2,2.6-.1v4.6c0,.4-.1.7.6.7,1.2-.1,2.4,0,3.6.1.7,0,.9-.2.7-.9.3,1.1,1.1,1,2,.9-.5.4-1,.1-1.4.3,0,1.1,0,2.2-.7,3.2.2-.8.5-1.6.5-2.5,0-.6-.2-.8-.8-.8h-3.5c-.6,0-1.2-.1-1,1-.5-1.6-1.7-.7-2.5-.9-.4-.1-.5,0-.3-.4.5,0,1-.1,1.5,0,1,.1,1.2-.3,1.1-1.1-.1-1,.1-2-.1-3.1-.1-.4.2-.9-.5-.9-.4,0-1-.3-1.2.2s0,1.1.8,1.3c-1.4-.4-.2,1.6-1.5,1.4-.1,0-.1,1.5-.2,2.3-.5-.8-.1-1.7-.3-2.5v-.2c.4,0,.9-.1.6-.6-.2-.5-.8-.3-1.2-.2-3.9.2-7.7,0-11.6.1-2.2,0-4.5.1-6.7.1-2.4,0-4.7.4-7.1-.1-.4-.3-.4.1-.5.4-.1,0,0,0,0,0Z"/>
    <path d="M120.7,70.3c.4-4.1,0-8.2.2-12.3.4,0,.3.3.3.4,0,3.7,0,7.3-.1,11,0,.6.2.6.6.6h43.5v.3h-44.5Z"/>
    <path d="M2,51.6v2.2c.8,0,1.7-.2,2.6,0,.6.1.6-.3.6-.7v-4.7q0-.9.8-.6c.2.1.5-.1.6.2-.2.4-.8-.2-1,.4-.4,1-.2,1.4.9,1.4h10.3c.6,0,1.4.5,1.9-.4.1-.2.2.1.2.2,0,.4.6.3.5.4-1,.4-.1,1.4-.7,1.9q-.2-1.8-2.2-1.8H6.5c-.8,0-1.2.2-1,1.1v.4c0,.7-.2,1.5.1,2,.3.6,1.2.1,1.8.2.1,0,.3.1.6.3-1.2.3-2.1.2-3.1.2-.2,0-.6-.2-.7.2,0,.2,0,.6.2.6.5.3.2-.4.4-.4.9,0,1.8,0,2.9.3q-2.1.4-2.1,2.4c0,.7-.1,1.5-.3,2.2v-3.1c0-.4.3-1-.5-1s-.4.6-.4.9c0,1.8,0,3.5-.1,5.3-.3-1.5-.1-2.9-.2-4.4v-.8c-.1-.4.1-1-.5-.9-.5,0-.2.6-.3.9-.1.6.1,1.2-.2,2-.2-1.1-.1-1.9-.1-2.8,0-.5.4-.4.7-.4.5,0,.2-.4.2-.6s-.2-.4-.4-.2c-.4.5-.7,0-.8,0-2,.3-.8-1.1-1-1.7-.1-.5-.3-1.1.3-1.2h0Z"/>
    <path d="M2.1,51.6c-.7-.5-.4-1.2-.4-1.9,0-1.1.1-2.2-1.7-1.7.6-.7,1.5.1,1.7-.8,0-.1.1-.1.2,0,1.2,1.3.5-.5.7-.5.5-.1.5.1.5.3,0,.3,0,.7.5.6.4,0,.5-.4.5-.7,0-1.8,0-3.6-.1-5.4,0-.6.4-1.6-.3-1.6-.9,0-.4,1.1-.4,1.7-.1,1.4,0,2.9,0,4.4h-.5v-6h0c.2-.3.2-1,.9-.5.4-.6.9-.2,1.3,0,.6.2.5-.4.5-.7-.2-1.6.3-3.3-.3-4.9-.1-.4.2-.9-.3-1.4-.2-.2.4-.3.5-.5h0c2.3.6,4.7.6,7.1.7-1.9-.2-3.8.3-5.7-.1-.6-.1-1,.1-1,.9.1,1.4,0,2.9,0,4.3,0,1-.2,2.1,1.5,1.8-.5.6-1.3,0-1.5.8,0,.2-.3.1-.3-.1,0-.5-.2-.4-.6-.4-.5.1-.4.4-.4.7,0,2.1,0,4.3-.1,6.4,0,.5.3.6.7.8-.7.6-1.6.3-2.3.2-.8-.1-.7.2-.7.8-.1,1-.1,1.9,0,2.8-.1,0,0,0,0,0Z"/>
    <path d="M193.4,15.9c-.4.5-1.1-.3-1.4.8-.1-1.1.2-2-1.3-1.7.7-.5,1.6-.6,1.3-1.7.1,1.1.6,1.2,1.4,1.2,9.1,0,18.2,0,27.3-.1h25.5c.2,0,.4,0,.6.3h-44c-3.2,0-6.4,0-9.7.1-.3,0-.9-.2-.9.3,0,1,.9.4,1.2.8Z"/>
    <path d="M62.2,72.1h.1c.5.6-.4,1.6.4,2,.6.3,1.4.1,2.1.1,6.8,0,13.6-.1,20.4-.1h19.8c.9,0,1.8,0,2.7.2h-3.7c-8.1,0-16.3-.1-24.4.1-5.2.1-10.4.1-15.6.1-.8,0-1.8-.2-1.6.6.2-1.2-1.2-.4-1.9-.7.1-.1.1-.2.1-.2,1.7.3,1.3-1.2,1.6-2.1Z"/>
    <path d="M28.4,74.9c.2-.2.4-.2.9-.2,1.8-.3,3.8-.3,5.6,0h.1v-.2h-3.7c-.4,0-1.1.4-1.2-.5-.3.3-.5.7-1.1.6-.7-.2-1.1,0-1.1.5.2-.1.3-.1.5-.2Z"/>
    <path d="M42.3,70.8h-6.5c-.7,0-1-.2-.9-1,.1-1,.1-1.9,0-2.9v-.6c-.1-.2-.1-.5-.1-.7-.1.1-.1.2-.1.4.1,1.6.1,3.2,0,4.8,0,.1-.1.3.2.3h4.9c1.1,0,2.1.2,3.3-.1-.3-.3-.6-.2-.8-.2Z"/>
    <path d="M171.6,72.3c-1.4.3-2.9.3-4.3.2-.8,0-1.4.2-1.2,1.2.2.9,1,0,1.3.6-.8.2-1.6.2-2.5.1-2.4-.1-4.8,0-7.2,0h-38.6s-.1-.2-.1-.3c0-.2.1-.2.3-.1.3.3.7.1,1,.1h44.6c.7,0,1-.2.9-.9v-1.2c1.9.3,3.8.1,5.8.3Z"/>
    <path d="M212.5,18.1c1.7-.4,3.5-.2,5.2-.2,9.6-.1,19.2,0,28.8,0h1.3v.4h-33.8c-.5,0-1-.1-1.5-.2h0Z"/>
    <path d="M8.6,55.8c-.1.3-.1.5-.1.8.1-.1.3-.1.4-.2v-.3c0-1,.5-1.1,1.1-1,.6,0,1.2-.2,1.2.7v.2h.3c-.3-.7.2-1,.9-1,.5,0,1,.2,1.6-.3-2.1,0-4-.2-6.1,0,.5.4.8.6.7,1.1Z"/>
    <path d="M122.5,36.5c-.6.3-1.8-.4-1.3,1.2-.6-.4-.4-1.6-1.3-1-.5.3-.3,1.1-.1,1.6.2.7.7,0,1.4-.1-.8.4-.7,2-2,.8-.4-.4,0-.4,0-.6.2-.5.1-1.1.1-1.7-.7-.2-.2.6-.7.7.2-1.1-.7-.8-1.3-1q1.2-.3,1.2-1.5c0-2.1,0-4.1.1-6.2.4,2.5,0,5,.5,7.8.6-.9.2-1.7.6-2.5v1.6c0,.4-.1.7.5.7.5,0,.6-.3.6-.7v-12h.3v3.1c0,3,.1,6,0,9-.1,1,1,.3,1.4.8Z"/>
    <path d="M14.8,71c-.6,0-1.3.1-1.9.1-.2,0-.6.1-.7-.3,0-.5.4-.3.6-.3.7-.1,1.5-.1,2.3-.2-.7-.4-1.5-.2-2.2-.2-.6,0-.7-.4-.7-.8,0-.5.1-.7.7-.7.3,0,.6.1.9-.1-.5-.5-1.1-.1-1.7-.6.8,0,1.5.1,2.2,0-.8-.1-1.5-.3-2.3-.5-.3,0-.5,0-.6.4.1.4.7-.2.7.4s.1,1.3,0,1.9c-.2,1.1-.3,1.1-1.6,1.1h-5.3v.3h10.8c-.5-.7-.9-.5-1.2-.5Z"/>
    <path d="M16.5,70.6c-.3-.7-.1-1.7,0-2.6h-.4c.1.2.1.5.1.8v2.5c.9-.1,1.7-.1,2.6-.2.1,0,.1-.1.1-.1-.7-.5-1.9.6-2.4-.4Z"/>
    <path d="M34.7,8.7v5.6c0,.3-.2.7.3.7s.3-.4.3-.7c0-2.3,0-4.7.3-7v5.9q.1,2,2.1,2h11.7c.9,0,1.9.1,3,.4-6.1.2-12.1-.3-18,.2v-7c.1-.1.2-.1.3-.1Z"/>
    <path d="M32,53q.2.5,1.4,1.1H12.1c-.2,0-.4-.1-.6-.1h0c.9-.5,2-.3,2.9-.3,1.2,0,2.4-.1,3.6,0,.9.1.3-.9.9-1-.3.8-.1,1.1.8,1.1h10.8c.8,0,1.1-.4,1.5-.8h0Z"/>
    <path d="M191.7,70h2.5c-.1.4-1,.4-.7,1.1.3.6.7.3,1.1.3.6.1,1.2,0,1.8.3-.8.1-1.6.2-2.4.2-.3,0-.5,0-.5.4s.2.2.5.2c2,.2,4,.1,6.4.2-1.1.4-1.9.1-2.7.2-1.1.1-2.2.1-3.2.1-.3,0-.8-.3-.9.4-.2.8.6.5.9.8-.3.3-1.5-.3-.9,1.1-.1-1.1-.7-1-1.2-1-2.7,0-5.5,0-8.2-.1,1.1-.5,2.3-.1,3.4-.2,1.7-.1,3.5,0,5.2.1.3,0,.4-.1.7-.4.5-.6-1.1-.6-.1-1.2.4-.3,0-1,.1-1.6.1-.5-.2-.7-.7-.7h-.9q-.2-.1-.2-.2Z"/>
    <path d="M32.2,55.4c-.2,1.1,0,2.1-.1,3.2-.1.9.5.8,1.1.8s1.4.4,1.4-.8c0-2.7.1-5.4,0-8.1-.1-2.9,0-5.7,0-8.6h.4c0,.9.1,1.7,0,2.6-.3,3.9.2,7.7,0,11.6,0,.7.1,1.4,0,2-.2,1,.2,1.3,1.1,1.2.2,0,.5-.1.5.3-1.1,0-2.1.1-3.2,0-.8-.1-1.4,0-1.5,1,0-1.7.1-3.3.1-5-.1-.1,0-.2.2-.2h0Z"/>
    <path d="M118.8,65.1c-.2-1.8-.1-3.7-.1-5.5v-5.5c0-.8.4-2-1.3-1.7.8-.1,1.6-.1,1.3-1.3.5.3.1.8.7,1.3-.2-.9.7-1.7-.6-2.2-.2-.1-.1-.3.1-.3.5,0,.5-.9.9-.6.4.4,1.5.3,1.2,1.4-.5,0-.6-1-1.2-.6-.4.4-.1,1.1-.1,1.6,0,.8.8.2,1.1.6-.7,0-1.3.3-1.1,1.1-.5-.2-.1-.7-.6-.9v12.5c-.1.1-.2.1-.3.1Z"/>
    <path d="M34.4,65.8c-.2.1-.2.2-.2.2-.6.3-1.5-.4-1.8.3-.3.6-.1,1.3-.1,2v1.6c0,.6-.1,1.2,1,1.3-.6.5-1.2.2-1.7.3-3.5.2-7.1-.2-10.6.1-.3,0-.2-.2-.2-.4-.1-.3,0-.3.4-.3,2.1.1,4.2.2,6.3.2h3.9c.6,0,.8-.2.8-.8-.1-1,0-2.1,0-3.1-.1-1.1.2-1.6,1.4-1.4.1,0,.4,0,.8,0Z"/>
    <path d="M2.7,74.6h24.8v.2H2.7c0-.1,0-.2,0-.2Z"/>
    <path d="M258.5,16.1c.4.7.2,1.4.2,2.1,0,.9-.1,1.6,1.3,1.4-1.9-.1-1.1,1.3-1.4,2.1-.1-.1-.2-.1-.2-.2q-.1-1.8-1.8-1.8c-1.1,0-2.2.1-3.2,0s-1.4.2-1.2,1.2v.7c-.6-.6.4-1.9-1.2-2.1,1.4-.4,2.6,0,3.8-.1,1-.1,2.1,0,3.1,0,.4,0,.6-.1.6-.6,0-.4,0-.6-.6-.7-1.9-.3-3.9-.1-5.8,0-.9,0-1.8,0-2.9-.3h7.4q1.7.1,1.9-1.7h0Z"/>
    <path d="M2.5,40c-.4-.2-.5.2-.9.2V13.6h.3v24c-.1,1-.2,1.8.6,2.4,0,.1,0,0,0,0Z"/>
    <path d="M32,53.1c-.4-.4-.4-.8-.4-1.3v-9.4c0-.5.2-1.2-.9-.8.7-1,1.5-.4,2.2-.4,1.1.1,1.9.1,1.5-1.4.3,1.6.7,1.7,3.6.5-1,1.1-2.1,1.3-3.4,1.2-2.8-.3-2.7-.3-2.8,2.5,0,3,.1,6,.2,9.1,0-.1,0,0,0,0Z"/>
    <path d="M190.8,70.3h-24.9v-.2h25c-.1,0-.1.1-.1.2Z"/>
    <path d="M191.5,15.7c-1.6.6-3.2.4-4.8.4-1.8.1-3.6-.1-5.3,0-.7,0-1.1-.1-1-.9.1-.5,0-1,.1-1.6,0,.5.7.9.2,1.6-.3.5.4.5.8.5h10Z"/>
    <path d="M177.2,72.2c.7-.3,1.3.1,2,.2h-1.1c-.7,0-.7.5-.8,1-.1.8.4.5.8.5,1.8.2,3.7-.1,5.5.1v.3h-4.1c-.3,0-.6,0-.8-.1-.9-.1-1.8-.1-1.5,1.3-.2-.7,0-1.7-.7-1.5,1.1.2.4-1.1.7-1.8h0Z"/>
    <path d="M107.9,73.3v-1.2c3.5.3,7,0,10.5.2-.7.4-1.4.3-2.1.3h-7.2c-.6,0-1.1,0-1.2.7Z"/>
    <path d="M4.1,62.9c.2.5,0,1.3.7,1.1.9-.3.1-1.2.5-1.8.8,2.4,0,4.9.4,7.4h-.4v-3.7c0-1.4-.4-1.8-1.8-1.4-.1,0-.3.6-.4.1-.1-.2,0-.5.3-.4.8-.1.5-.8.7-1.3Z"/>
    <path d="M247.2,15.8v-2.9c.3.6-.1,1.4.8,1.6.2,0,.2.3-.1.4-.2.1-.5.1-.3.4.1.3.4.1.6.1,3,0,5.9,0,8.9-.1.2,0,.4.1.6.2-3.5.4-7,0-10.5.3Z"/>
    <path d="M13.1,32.3h15.6v.1h-15.6s0,0,0-.1Z"/>
    <path d="M.6,64c.9.2,1.3-.2,1.2-1.1.4.4-.1,1.1.7,1.1.1,0,.3.1,0,.2-.8.4-.4,1.2-.4,1.8,0,2.8,0,5.7.1,8.5,0,.3-.1.5-.1.7-.3-.1-.6-.3-1.1-.5.7,0,.9-.3.9-.8,0-3-.1-6,0-9-.1-1.1-.9-.5-1.3-.9Z"/>
    <path d="M12.3,52.5c.1.4-.3.3-.4.3-.9,0-1.8-.1-2.9-.1,1.2-.5.6-1.3.7-2,.9-.3,1.9.2,2.8,0,.2,0,.4.2.3.4-.1.5.3,1.2-.5,1.4.3-1.3.2-1.4-1.5-1.3-.4,0-.9,0-.8.7,0,.6.4.6.8.6h1.5Z"/>
    <path d="M109.6,15h-.6c-.3,0-.6-.1-.7.4,0,.6.4.5.7.5h8.3c.2,0,.5-.1.7.2-3.3.4-6.7-.2-10,.4-.1-.7.2-1.5,0-2.4.3.8.9.7,1.6.9Z"/>
    <path d="M32.2,55.4c-.4-.5-1-.3-1.5-.3h-6.6c.3-.5.7-.3,1.1-.3,2.4,0,4.8.2,7.3,0,.2,0,.5,0,.5.2-.1.5-.7.1-.8.4h0Z"/>
    <path d="M291.3,70.4c-.4-2.3-.1-4.7-.3-7.3.5.7.3,1.3.3,1.8.1,1.8.3,3.7,0,5.5h0Z"/>
    <path d="M32.8,15.3c-.6.9-.2,1.9-.2,2.9-.1,1,.1,2-.3,3.1v-7.1c.2.4.3.8.5,1.1h0Z"/>
    <path d="M24.1,7.8c-1.4.6-2.9.1-4.3.2-1,.1-2,0-3.1-.2,2.5-.1,5-.4,7.4,0h0Z"/>
    <path d="M56.3,50.8v-1.4c0-1.4-.1-1.5-1.4-1.2-.5.1-1.1.3-1.7.4.4-.4.7-.5,1.1-.6.8-.2,1.8.2,2.3-.8q.1-.1.2,0c0,.3.1.6.4.9-1.1.6-.4,1.8-.9,2.7Z"/>
    <path d="M291.3,70.4c.4.7.2,1.4.2,2.1-.1.9.2,1.4,1.2,1.1.2,0,.5-.1.6.3-.8.3-2.4-.5-2.1,1.5-.3-1.7-.1-3.4.1-5h0Z"/>
    <path d="M119.6,70.6c-.4.2-1,.3-.9-.8,0-1.3,0-2.7.2-4.1.3,1.6-.1,3.3.7,4.9Z"/>
    <path d="M32.8,15.3c.4-.1.7,0,.7-.6-.1-1.3,0-2.7,0-4v-.8c0-.2-.1-.4.3-.4.3.1.2.2.2.5-.4,1.6-.2,3.2-.1,4.8,0,.2.2.4.4.6-.6.1-1.1.2-1.5-.1h0Z"/>
    <path d="M257.9,71.4c-.9.3-1.8-.3-2.6.3-1-.4-2-.2-3-.2-.4,0-.7.2-1.4-.3,2.5,0,4.8-.1,7,.2Z"/>
    <path d="M255.3,71.6c-.1.6,0,1,.8.9.3,0,.7-.2.9.2-.6.2-1.6-.4-1.8.7,0,.2-.3.2-.4,0-.2-.3-.6-.6-.7-1-.1-.2.3,0,.4,0,.5.1.1-.8.8-.8Z"/>
    <path d="M24.1,7.8c1.8-.4,3.5-.1,5.3,0-1.7.1-3.5.4-5.3,0h0Z"/>
    <path d="M48.3,73.3c-2.3-.5-4.6.1-6.8-.5h6.1c.3.1.5.3.7.5,0,.1,0,0,0,0Z"/>
    <path d="M177.2,72.2c-1.7.7-3.5-.1-5.2.4v-.4h5.2Z"/>
    <path d="M121,55.3c-.2-.9-.2-1.8,0-2.8,0-.2-.1-.4.2-.4.1,0,.4.1.4.2.2.2-.2.3-.2.4-.3.8-.1,1.7-.4,2.6Z"/>
    <path d="M11.6,54c-1.1.2-2.3.1-3.4,0,1.1-.1,2.2-.5,3.4,0h0Z"/>
  </g>
  <g id="billeder">
    <image width="800" height="615" transform="translate(159.1) scale(.06)" xlink:href="/billeder/ib.jpeg"/>
    <image width="600" height="416" transform="translate(93.43 46.45) scale(.09)" xlink:href="/billeder/heerup.jpeg"/>
    <image width="787" height="647" transform="translate(42.4 .4) scale(.05)" xlink:href="/billeder/bonde.jpeg"/>
    <image width="660" height="394" transform="translate(220.07 44.69) scale(.09)" xlink:href="/billeder/eckersberg.jpeg"/>
  </g>
  <g id="laager">
    <g id="laage-1">
      <rect x="20.7" width="69" height="37" fill="#ce1b1b"/>
      <path d="M55.18,10.19h-.02l-1.36.73-.2-.8,1.7-.91h.9v7.8h-1.02v-6.81Z"/>
    </g>
    <g id="laage-3">
      <rect x="215.3" y="44.22" width="69" height="37.36" fill="#ce1b1b"/>
      <path d="M253.63,59.39c.3.19,1,.49,1.73.49,1.36,0,1.78-.86,1.76-1.51-.01-1.09-1-1.56-2.01-1.56h-.59v-.79h.59c.77,0,1.74-.4,1.74-1.32,0-.62-.4-1.17-1.37-1.17-.62,0-1.22.28-1.56.52l-.28-.77c.41-.3,1.2-.6,2.04-.6,1.54,0,2.23.91,2.23,1.86,0,.8-.48,1.49-1.44,1.83v.02c.96.19,1.74.91,1.74,2,0,1.25-.97,2.34-2.84,2.34-.88,0-1.64-.28-2.03-.53l.29-.82Z"/>
    </g>
    <g id="laage-4">
      <rect x="142.7" y=".4" width="69" height="37" fill="#ce1b1b"/>
      <path d="M178.4,16.7v-2.12h-3.62v-.7l3.48-4.98h1.14v4.85h1.09v.83h-1.09v2.12h-1ZM178.4,13.75v-2.6c0-.41.01-.82.04-1.22h-.04c-.24.46-.43.79-.65,1.15l-1.91,2.65v.02h2.55Z"/>
    </g>
    <g id="laage-2">
      <rect x="80.3" y="45.83" width="69" height="37.55" fill="#ce1b1b"/>
      <path d="M113.53,67.4v-.65l.83-.8c1.99-1.89,2.89-2.9,2.9-4.08,0-.79-.38-1.52-1.55-1.52-.71,0-1.3.36-1.66.66l-.34-.74c.54-.46,1.31-.79,2.21-.79,1.68,0,2.39,1.15,2.39,2.27,0,1.44-1.04,2.6-2.69,4.19l-.62.58v.02h3.5v.88h-4.98Z"/>
    </g>
  </g>
</svg>